<?xml version="1.0" standalone="no"?><!DOCTYPE svg PUBLIC "-//W3C//DTD SVG 1.1//EN"
        "http://www.w3.org/Graphics/SVG/1.1/DTD/svg11.dtd">
<svg t="1579412489299" class="icon" viewBox="0 0 1024 1024" version="1.1" xmlns="http://www.w3.org/2000/svg" p-id="994"
     xmlns:xlink="http://www.w3.org/1999/xlink" width="200" height="200">
    <defs>
        <style type="text/css"></style>
    </defs>
    <path d="M981.333333 1024H42.666667a42.666667 42.666667 0 0 1 0-85.333333h42.666666V128a128 128 0 0 1 128-128h302.506667a128 128 0 0 1 128 128v224l202.24 58.453333A128 128 0 0 1 938.666667 533.333333V938.666667h42.666666a42.666667 42.666667 0 0 1 0 85.333333z m-337.493333-85.333333H853.333333v-405.333334a42.666667 42.666667 0 0 0-30.72-42.666666l-178.773333-51.626667v148.906667h85.333333a42.666667 42.666667 0 0 1 0 85.333333h-85.333333v72.106667h85.333333a42.666667 42.666667 0 0 1 0 85.333333h-85.333333z m-151.04 0h65.706667V128a42.666667 42.666667 0 0 0-42.666667-42.666667H213.333333a42.666667 42.666667 0 0 0-42.666666 42.666667v810.666667h66.133333v-170.666667a42.666667 42.666667 0 0 1 42.666667-42.666667h170.666666a42.666667 42.666667 0 0 1 42.666667 42.666667z m-170.666667 0h85.333334v-128h-85.333334z m128-320h-170.666666a42.666667 42.666667 0 0 1 0-85.333334h170.666666a42.666667 42.666667 0 0 1 0 85.333334z m0-170.666667h-170.666666a42.666667 42.666667 0 0 1 0-85.333333h170.666666a42.666667 42.666667 0 0 1 0 85.333333z m0-170.666667h-170.666666a42.666667 42.666667 0 0 1 0-85.333333h170.666666a42.666667 42.666667 0 0 1 0 85.333333z"
          p-id="995" fill="#5cc04a"></path>
</svg>